<svg width="113" height="33" viewBox="0 0 113 33" fill="none" xmlns="http://www.w3.org/2000/svg">
<path d="M0.136 26V3.6H9.48C10.9093 3.6 12.1147 3.81333 13.096 4.24C14.0773 4.66667 14.8133 5.30667 15.304 6.16C15.816 6.992 16.072 8.016 16.072 9.232C16.072 10.448 15.7307 11.4827 15.048 12.336C14.3867 13.1893 13.4587 13.776 12.264 14.096V13.456C13.2667 13.6693 14.1413 14.0533 14.888 14.608C15.6347 15.1413 16.2107 15.8133 16.616 16.624C17.0427 17.4347 17.256 18.3627 17.256 19.408C17.256 20.4747 17.0853 21.424 16.744 22.256C16.424 23.0667 15.9333 23.7493 15.272 24.304C14.632 24.8587 13.8533 25.2853 12.936 25.584C12.0187 25.8613 10.9733 26 9.8 26H0.136ZM3.592 22.672H9.608C10.4827 22.672 11.2187 22.544 11.816 22.288C12.4347 22.032 12.904 21.6587 13.224 21.168C13.5653 20.656 13.736 20.048 13.736 19.344C13.736 18.6827 13.5547 18.1173 13.192 17.648C12.8507 17.1787 12.36 16.8267 11.72 16.592C11.08 16.336 10.3227 16.208 9.448 16.208H3.592V22.672ZM3.592 12.88H9.288C9.928 12.88 10.4933 12.752 10.984 12.496C11.496 12.24 11.8907 11.888 12.168 11.44C12.4667 10.992 12.616 10.48 12.616 9.904C12.616 8.944 12.296 8.208 11.656 7.696C11.016 7.184 10.0987 6.928 8.904 6.928H3.592V12.88ZM27.518 26.32C26.1313 26.32 24.862 25.936 23.71 25.168C22.5793 24.4 21.6727 23.3547 20.99 22.032C20.3073 20.7093 19.966 19.216 19.966 17.552C19.966 15.8667 20.3073 14.3733 20.99 13.072C21.694 11.7493 22.6327 10.7147 23.806 9.968C25.0007 9.22133 26.334 8.848 27.806 8.848C28.6807 8.848 29.4807 8.976 30.206 9.232C30.9313 9.488 31.5607 9.85067 32.094 10.32C32.6487 10.768 33.0967 11.2907 33.438 11.888C33.8007 12.4853 34.0247 13.1253 34.11 13.808L33.374 13.552V9.2H36.702V26H33.374V22L34.142 21.776C34.014 22.352 33.7473 22.9173 33.342 23.472C32.958 24.0053 32.4567 24.4853 31.838 24.912C31.2407 25.3387 30.5687 25.68 29.822 25.936C29.0967 26.192 28.3287 26.32 27.518 26.32ZM28.382 23.28C29.3847 23.28 30.27 23.0347 31.038 22.544C31.806 22.0533 32.4033 21.3813 32.83 20.528C33.278 19.6533 33.502 18.6613 33.502 17.552C33.502 16.464 33.278 15.4933 32.83 14.64C32.4033 13.7867 31.806 13.1147 31.038 12.624C30.27 12.1333 29.3847 11.888 28.382 11.888C27.4007 11.888 26.526 12.1333 25.758 12.624C25.0113 13.1147 24.414 13.7867 23.966 14.64C23.5393 15.4933 23.326 16.464 23.326 17.552C23.326 18.6613 23.5393 19.6533 23.966 20.528C24.414 21.3813 25.0113 22.0533 25.758 22.544C26.526 23.0347 27.4007 23.28 28.382 23.28ZM26.654 6.608L25.566 4.976L30.142 0.975998L32.222 3.6L26.654 6.608ZM41.304 26V9.2H44.6V12.656L44.024 13.04C44.2373 12.2933 44.6533 11.6107 45.272 10.992C45.8907 10.352 46.6267 9.84 47.48 9.456C48.3333 9.05067 49.208 8.848 50.104 8.848C51.384 8.848 52.4507 9.104 53.304 9.616C54.1573 10.1067 54.7973 10.864 55.224 11.888C55.6507 12.912 55.864 14.2027 55.864 15.76V26H52.568V15.984C52.568 15.024 52.44 14.2347 52.184 13.616C51.928 12.976 51.5333 12.5173 51 12.24C50.4667 11.9413 49.8053 11.8133 49.016 11.856C48.376 11.856 47.7893 11.9627 47.256 12.176C46.7227 12.368 46.2533 12.6453 45.848 13.008C45.464 13.3707 45.1547 13.7973 44.92 14.288C44.7067 14.7573 44.6 15.2693 44.6 15.824V26H42.968C42.6907 26 42.4133 26 42.136 26C41.8587 26 41.5813 26 41.304 26ZM70.136 26V3.6H73.592V22.672H84.088V26H70.136ZM94.2993 26.32C92.9126 26.32 91.6433 25.936 90.4913 25.168C89.3606 24.4 88.4539 23.3547 87.7713 22.032C87.0886 20.7093 86.7473 19.216 86.7473 17.552C86.7473 15.8667 87.0886 14.3733 87.7713 13.072C88.4753 11.7493 89.4139 10.7147 90.5873 9.968C91.7819 9.22133 93.1153 8.848 94.5873 8.848C95.4619 8.848 96.2619 8.976 96.9873 9.232C97.7126 9.488 98.3419 9.85067 98.8753 10.32C99.4299 10.768 99.8779 11.2907 100.219 11.888C100.582 12.4853 100.806 13.1253 100.891 13.808L100.155 13.552V9.2H103.483V26H100.155V22L100.923 21.776C100.795 22.352 100.529 22.9173 100.123 23.472C99.7393 24.0053 99.2379 24.4853 98.6193 24.912C98.0219 25.3387 97.3499 25.68 96.6033 25.936C95.8779 26.192 95.1099 26.32 94.2993 26.32ZM95.1633 23.28C96.1659 23.28 97.0513 23.0347 97.8193 22.544C98.5873 22.0533 99.1846 21.3813 99.6113 20.528C100.059 19.6533 100.283 18.6613 100.283 17.552C100.283 16.464 100.059 15.4933 99.6113 14.64C99.1846 13.7867 98.5873 13.1147 97.8193 12.624C97.0513 12.1333 96.1659 11.888 95.1633 11.888C94.1819 11.888 93.3073 12.1333 92.5393 12.624C91.7926 13.1147 91.1953 13.7867 90.7473 14.64C90.3206 15.4933 90.1073 16.464 90.1073 17.552C90.1073 18.6613 90.3206 19.6533 90.7473 20.528C91.1953 21.3813 91.7926 22.0533 92.5393 22.544C93.3073 23.0347 94.1819 23.28 95.1633 23.28ZM95.6753 32.592C94.9713 32.592 94.4273 32.4107 94.0433 32.048C93.6593 31.6853 93.4673 31.1733 93.4673 30.512C93.4673 29.8933 93.6593 29.392 94.0433 29.008C94.4486 28.624 94.9926 28.432 95.6753 28.432C96.3793 28.432 96.9233 28.6133 97.3073 28.976C97.6913 29.3387 97.8833 29.8507 97.8833 30.512C97.8833 31.1307 97.6806 31.632 97.2753 32.016C96.8913 32.4 96.3579 32.592 95.6753 32.592ZM108.629 26V9.2H111.925V26H108.629ZM110.229 5.488C109.525 5.488 108.981 5.30667 108.597 4.944C108.213 4.58133 108.021 4.06933 108.021 3.408C108.021 2.78933 108.213 2.288 108.597 1.904C109.003 1.52 109.547 1.328 110.229 1.328C110.933 1.328 111.477 1.50933 111.861 1.872C112.245 2.23467 112.437 2.74667 112.437 3.408C112.437 4.02667 112.235 4.528 111.829 4.912C111.445 5.296 110.912 5.488 110.229 5.488Z" fill="#001A33"/>
</svg>
