<svg width="69" height="58" viewBox="0 0 69 58" fill="none" xmlns="http://www.w3.org/2000/svg">
<path d="M15.3333 41.0833V31.4166C15.3333 28.7472 17.4972 26.5833 20.1666 26.5833H49.1666C51.836 26.5833 53.9999 28.7472 53.9999 31.4166V41.0833C53.9999 42.4179 52.9179 43.4999 51.5832 43.4999H17.7499C16.4152 43.4999 15.3333 42.4179 15.3333 41.0833Z" stroke="#0068FF" stroke-width="3.625" stroke-linecap="round"/>
<path d="M15.3333 38.6667H53.9999" stroke="#0068FF" stroke-width="3.625" stroke-linecap="round"/>
<path d="M17.75 26.5834V14.5001C17.75 11.8307 19.914 9.66675 22.5833 9.66675H46.75C49.4194 9.66675 51.5833 11.8307 51.5833 14.5001V26.5834" stroke="#0068FF" stroke-width="3.625" stroke-linecap="round"/>
<path d="M17.75 43.5V48.0917C17.75 48.2251 17.8582 48.3333 17.9917 48.3333H24.7583C24.8918 48.3333 25 48.2251 25 48.0917V43.5" stroke="#0068FF" stroke-width="3.625" stroke-linecap="round"/>
<path d="M44.3333 43.5V48.0917C44.3333 48.2251 44.4414 48.3333 44.5749 48.3333H51.3416C51.4751 48.3333 51.5833 48.2251 51.5833 48.0917V43.5" stroke="#0068FF" stroke-width="3.625" stroke-linecap="round"/>
<path d="M22.5833 26.5833V21.7499C22.5833 20.4152 23.6652 19.3333 24.9999 19.3333H29.8333C31.1679 19.3333 32.2499 20.4152 32.2499 21.7499V26.5833" stroke="#0068FF" stroke-width="3.625" stroke-linecap="round"/>
<path d="M37.0833 26.5833V21.7499C37.0833 20.4152 38.1652 19.3333 39.4999 19.3333H44.3333C45.6679 19.3333 46.7499 20.4152 46.7499 21.7499V26.5833" stroke="#0068FF" stroke-width="3.625" stroke-linecap="round"/>
</svg>
