<svg width="40" height="40" viewBox="0 0 40 40" fill="none" xmlns="http://www.w3.org/2000/svg">
<rect width="40" height="40" rx="8" fill="#ADBBC5"/>
<path d="M18.1693 21.8307C18.7017 22.337 18.7017 23.168 18.1693 23.6743C17.663 24.1807 16.832 24.1807 16.3257 23.6743C13.7939 21.1425 13.7939 17.0268 16.3257 14.495L20.9218 9.89884C23.4536 7.36705 27.5694 7.36705 30.1012 9.89884C32.6329 12.4306 32.6329 16.5464 30.1012 19.0782L28.1666 21.0127C28.1796 19.9481 28.0108 18.8834 27.6473 17.8707L28.2575 17.2475C29.7896 15.7284 29.7896 13.2616 28.2575 11.7425C26.7384 10.2104 24.2716 10.2104 22.7525 11.7425L18.1693 16.3257C16.6373 17.8447 16.6373 20.3116 18.1693 21.8307ZM21.8307 16.3257C22.337 15.8193 23.168 15.8193 23.6743 16.3257C26.2061 18.8575 26.2061 22.9732 23.6743 25.505L19.0782 30.1012C16.5464 32.6329 12.4306 32.6329 9.89884 30.1012C7.36705 27.5694 7.36705 23.4536 9.89884 20.9218L11.8334 18.9873C11.8204 20.0519 11.9892 21.1166 12.3527 22.1423L11.7425 22.7525C10.2104 24.2716 10.2104 26.7384 11.7425 28.2575C13.2616 29.7896 15.7284 29.7896 17.2475 28.2575L21.8307 23.6743C23.3627 22.1553 23.3627 19.6884 21.8307 18.1693C21.2983 17.663 21.2983 16.832 21.8307 16.3257Z" fill="white"/>
</svg>
