<svg width="68" height="58" viewBox="0 0 68 58" fill="none" xmlns="http://www.w3.org/2000/svg">
<path d="M46.2499 42.2916C46.2499 42.9589 45.7089 43.4999 45.0416 43.4999C44.3742 43.4999 43.8333 42.9589 43.8333 42.2916C43.8333 41.6242 44.3742 41.0833 45.0416 41.0833C45.7089 41.0833 46.2499 41.6242 46.2499 42.2916Z" stroke="#0068FF" stroke-width="3.625"/>
<path d="M14.8333 43.5001H21.2777H36.5833C37.918 43.5001 39 42.4181 39 41.0834V26.5834C39 25.2487 37.918 24.1667 36.5833 24.1667H14.8333C13.4986 24.1667 12.4166 25.2487 12.4166 26.5834V41.0834C12.4166 42.4181 13.4986 43.5001 14.8333 43.5001Z" stroke="#0068FF" stroke-width="3.625" stroke-linecap="round"/>
<path d="M12.4166 38.6667H19.0625H22.3854H25.7083L29.0312 38.6667H32.3541H39" stroke="#0068FF" stroke-width="3.625" stroke-linecap="round"/>
<path d="M19.6666 48.3333H31.75" stroke="#0068FF" stroke-width="3.625" stroke-linecap="round"/>
<path d="M42.3229 48.3334H53.5C54.8346 48.3334 55.9166 47.2514 55.9166 45.9167V12.0834C55.9166 10.7487 54.8346 9.66675 53.5 9.66675H36.5833C35.2486 9.66675 34.1666 10.7487 34.1666 12.0834V24.1667" stroke="#0068FF" stroke-width="3.625" stroke-linecap="round"/>
<path d="M41.4166 14.5H48.6666" stroke="#0068FF" stroke-width="3.625" stroke-linecap="round"/>
<path d="M41.4166 19.3333H48.6666" stroke="#0068FF" stroke-width="3.625" stroke-linecap="round"/>
<path d="M25.7083 43.5V48.3333" stroke="#0068FF" stroke-width="3.625" stroke-linecap="round"/>
</svg>
