<svg width="167" height="19" viewBox="0 0 167 19" fill="none" xmlns="http://www.w3.org/2000/svg">
<path d="M13.4183 0.901855H0.372731V3.68759H9.43008L0.48455 14.7191C0.205002 15.1091 0 15.4991 0 16.3534V17.0591H12.3001C12.9151 17.0591 13.4183 16.5577 13.4183 15.9448V14.4591H3.93231L12.3187 3.96616C12.4306 3.81759 12.6915 3.53902 12.7847 3.40902L12.8406 3.33473C13.3251 2.62901 13.4183 2.01615 13.4183 1.29186V0.901855Z" fill="#0068FF"/>
<path d="M30.0041 17.0593H31.8677V0.716309H29.0723V16.1307C29.0723 16.6507 29.4823 17.0593 30.0041 17.0593Z" fill="#0068FF"/>
<path d="M25.3448 17.059H26.8357V4.83887H24.2266V15.9447C24.2266 16.5575 24.7297 17.059 25.3448 17.059Z" fill="#0068FF"/>
<path d="M20.5005 4.48633C16.9968 4.48633 14.1641 7.3092 14.1641 10.8007C14.1641 14.2921 16.9968 17.115 20.5005 17.115C24.0041 17.115 26.8369 14.2921 26.8369 10.8007C26.8369 7.3092 24.0041 4.48633 20.5005 4.48633ZM20.5005 14.515C18.4505 14.515 16.7732 12.8435 16.7732 10.8007C16.7732 8.75779 18.4505 7.08635 20.5005 7.08635C22.5505 7.08635 24.2278 8.75779 24.2278 10.8007C24.2278 12.8435 22.5505 14.515 20.5005 14.515Z" fill="#0068FF"/>
<path d="M40.1239 4.41211C36.5829 4.41211 33.7129 7.27213 33.7129 10.8007C33.7129 14.3293 36.5829 17.1893 40.1239 17.1893C43.6648 17.1893 46.5348 14.3293 46.5348 10.8007C46.5535 7.27213 43.6648 4.41211 40.1239 4.41211ZM40.1239 14.5522C38.0366 14.5522 36.3593 12.8622 36.3593 10.8007C36.3593 8.73928 38.0552 7.0307 40.1239 7.0307C42.1925 7.0307 43.8884 8.72071 43.8884 10.7822C43.8884 12.8436 42.2112 14.5522 40.1239 14.5522Z" fill="#0068FF"/>
<path d="M51.2901 5.14673H52.2366L56.3435 14.5535L60.458 5.14673H61.3969L56.7023 15.8302H55.9847L51.2901 5.14673ZM51 5.14673H51.8321L51.9313 11.1635V15.8302H51V5.14673ZM60.8702 5.14673H61.7023V15.8302H60.7634V11.1635L60.8702 5.14673Z" fill="#001A33"/>
<path d="M65.3282 7.89099V15.8302H64.4198V7.89099H65.3282ZM64.2595 5.59434C64.2595 5.42802 64.313 5.28861 64.4198 5.1761C64.5318 5.0587 64.6845 5 64.8779 5C65.0712 5 65.2239 5.0587 65.3359 5.1761C65.4529 5.28861 65.5114 5.42802 65.5114 5.59434C65.5114 5.75577 65.4529 5.89518 65.3359 6.01258C65.2239 6.12509 65.0712 6.18134 64.8779 6.18134C64.6845 6.18134 64.5318 6.12509 64.4198 6.01258C64.313 5.89518 64.2595 5.75577 64.2595 5.59434Z" fill="#001A33"/>
<path d="M68.7328 9.58586V15.8301H67.8244V7.8909H68.6947L68.7328 9.58586ZM68.5267 11.3689L68.1221 11.1487C68.1527 10.6791 68.2519 10.2389 68.4198 9.828C68.5878 9.4171 68.8142 9.05512 69.0992 8.74205C69.3893 8.42898 69.7277 8.1844 70.1145 8.0083C70.5064 7.83219 70.9389 7.74414 71.4122 7.74414C71.8244 7.74414 72.1934 7.79795 72.5191 7.90557C72.8448 8.01319 73.1221 8.1844 73.3511 8.4192C73.5802 8.654 73.7532 8.95484 73.8702 9.32171C73.9924 9.68859 74.0534 10.1362 74.0534 10.6645V15.8301H73.1374V10.6571C73.1374 10.1093 73.0585 9.68125 72.9008 9.37308C72.743 9.06001 72.5191 8.83744 72.229 8.70536C71.9389 8.57329 71.5954 8.50725 71.1985 8.50725C70.7608 8.50725 70.3766 8.60019 70.0458 8.78607C69.7201 8.96707 69.4453 9.20431 69.2214 9.49781C69.0025 9.78642 68.8346 10.097 68.7176 10.4297C68.6005 10.7574 68.5369 11.0705 68.5267 11.3689Z" fill="#001A33"/>
<path d="M77.4351 7.89099V15.8302H76.5267V7.89099H77.4351ZM76.3664 5.59434C76.3664 5.42802 76.4198 5.28861 76.5267 5.1761C76.6387 5.0587 76.7913 5 76.9847 5C77.1781 5 77.3308 5.0587 77.4427 5.1761C77.5598 5.28861 77.6183 5.42802 77.6183 5.59434C77.6183 5.75577 77.5598 5.89518 77.4427 6.01258C77.3308 6.12509 77.1781 6.18134 76.9847 6.18134C76.7913 6.18134 76.6387 6.12509 76.5267 6.01258C76.4198 5.89518 76.3664 5.75577 76.3664 5.59434Z" fill="#001A33"/>
<path d="M83.9237 11.479H80.7557V10.7086H83.9237C84.5852 10.7086 85.1221 10.6059 85.5344 10.4004C85.9517 10.1901 86.2545 9.90634 86.4427 9.54925C86.6361 9.19215 86.7328 8.79104 86.7328 8.34589C86.7328 7.91053 86.6361 7.50941 86.4427 7.14254C86.2545 6.77566 85.9517 6.48216 85.5344 6.26203C85.1221 6.03702 84.5852 5.92451 83.9237 5.92451H81.084V15.8302H80.145V5.14673H83.9237C84.7379 5.14673 85.4224 5.28125 85.9771 5.55029C86.5369 5.81934 86.9593 6.19355 87.2443 6.67294C87.5293 7.15232 87.6718 7.70508 87.6718 8.33122C87.6718 8.9867 87.5293 9.55169 87.2443 10.0262C86.9593 10.4958 86.5394 10.8553 85.9847 11.1048C85.43 11.3543 84.743 11.479 83.9237 11.479Z" fill="#001A33"/>
<path d="M90.4733 9.20431V15.8301H89.5649V7.8909H90.4504L90.4733 9.20431ZM93.3969 7.83219L93.374 8.63932C93.2723 8.62465 93.173 8.61242 93.0763 8.60264C92.9796 8.59285 92.8753 8.58796 92.7634 8.58796C92.3664 8.58796 92.0178 8.65889 91.7176 8.80075C91.4224 8.93772 91.173 9.13094 90.9695 9.38041C90.7659 9.625 90.6107 9.91361 90.5038 10.2462C90.3969 10.574 90.3359 10.9262 90.3206 11.3028L89.9847 11.4276C89.9847 10.9091 90.0407 10.4272 90.1527 9.98209C90.2646 9.53695 90.4351 9.14806 90.6641 8.81542C90.8982 8.4779 91.1908 8.21619 91.542 8.03031C91.8982 7.83953 92.3155 7.74414 92.7939 7.74414C92.9109 7.74414 93.0254 7.75393 93.1374 7.77349C93.2545 7.78817 93.341 7.80774 93.3969 7.83219Z" fill="#001A33"/>
<path d="M94.1755 11.9852V11.7431C94.1755 11.1659 94.262 10.6327 94.435 10.1435C94.608 9.65435 94.8549 9.23122 95.1755 8.87412C95.5012 8.51703 95.8905 8.24065 96.3434 8.04498C96.7963 7.84442 97.3002 7.74414 97.8549 7.74414C98.4147 7.74414 98.921 7.84442 99.3739 8.04498C99.8269 8.24065 100.216 8.51703 100.542 8.87412C100.868 9.23122 101.117 9.65435 101.29 10.1435C101.463 10.6327 101.55 11.1659 101.55 11.7431V11.9852C101.55 12.5624 101.463 13.0956 101.29 13.5848C101.117 14.0691 100.868 14.4898 100.542 14.8469C100.221 15.204 99.8345 15.4828 99.3816 15.6833C98.9287 15.879 98.4248 15.9768 97.8701 15.9768C97.3103 15.9768 96.804 15.879 96.351 15.6833C95.8981 15.4828 95.5088 15.204 95.1831 14.8469C94.8574 14.4898 94.608 14.0691 94.435 13.5848C94.262 13.0956 94.1755 12.5624 94.1755 11.9852ZM95.0839 11.7431V11.9852C95.0839 12.4206 95.1449 12.8339 95.2671 13.2253C95.3892 13.6117 95.5673 13.9566 95.8014 14.2599C96.0355 14.5583 96.3256 14.7931 96.6717 14.9643C97.0177 15.1355 97.4172 15.2211 97.8701 15.2211C98.318 15.2211 98.7124 15.1355 99.0533 14.9643C99.3994 14.7931 99.6895 14.5583 99.9236 14.2599C100.158 13.9566 100.333 13.6117 100.45 13.2253C100.573 12.8339 100.634 12.4206 100.634 11.9852V11.7431C100.634 11.3126 100.573 10.9042 100.45 10.5177C100.333 10.1313 100.155 9.78642 99.9159 9.48314C99.6818 9.17985 99.3918 8.94016 99.0457 8.76406C98.6996 8.58796 98.3027 8.49991 97.8549 8.49991C97.407 8.49991 97.0101 8.58796 96.664 8.76406C96.3231 8.94016 96.033 9.17985 95.7938 9.48314C95.5597 9.78642 95.3816 10.1313 95.2594 10.5177C95.1424 10.9042 95.0839 11.3126 95.0839 11.7431Z" fill="#001A33"/>
<path d="M108.878 7.8909H109.725V15.6907C109.725 16.3804 109.588 16.9723 109.313 17.4664C109.043 17.9604 108.659 18.3395 108.16 18.6037C107.667 18.8678 107.084 18.9999 106.412 18.9999C106.071 18.9999 105.72 18.9485 105.359 18.8458C105.003 18.748 104.664 18.5963 104.344 18.3909C104.028 18.1903 103.758 17.9408 103.534 17.6425L104.046 17.1068C104.382 17.4982 104.74 17.7843 105.122 17.9653C105.504 18.1512 105.916 18.2441 106.359 18.2441C106.883 18.2441 107.326 18.1439 107.687 17.9433C108.053 17.7427 108.331 17.4541 108.519 17.0775C108.712 16.7008 108.809 16.2483 108.809 15.72V9.63723L108.878 7.8909ZM103.076 11.9412V11.7871C103.076 11.1708 103.148 10.6156 103.29 10.1215C103.438 9.62255 103.649 9.19697 103.924 8.84477C104.198 8.48768 104.532 8.21619 104.924 8.03031C105.321 7.83953 105.768 7.74414 106.267 7.74414C106.746 7.74414 107.17 7.81997 107.542 7.97161C107.913 8.12325 108.234 8.34093 108.504 8.62465C108.774 8.90837 108.99 9.24589 109.153 9.63723C109.321 10.0286 109.443 10.4639 109.519 10.9433V12.9024C109.458 13.3525 109.346 13.7658 109.183 14.1425C109.02 14.5142 108.804 14.8395 108.534 15.1183C108.265 15.3923 107.939 15.6051 107.557 15.7567C107.181 15.9035 106.746 15.9768 106.252 15.9768C105.758 15.9768 105.316 15.879 104.924 15.6833C104.532 15.4877 104.198 15.2113 103.924 14.8542C103.649 14.4922 103.438 14.0642 103.29 13.5701C103.148 13.0761 103.076 12.5331 103.076 11.9412ZM103.992 11.7871V11.9412C103.992 12.4059 104.041 12.8364 104.137 13.2326C104.234 13.6288 104.382 13.9737 104.58 14.2672C104.779 14.5607 105.031 14.7906 105.336 14.9569C105.641 15.1232 106 15.2064 106.412 15.2064C106.936 15.2064 107.377 15.111 107.733 14.9202C108.089 14.7246 108.371 14.4678 108.58 14.1498C108.789 13.8269 108.941 13.4747 109.038 13.0932V10.8112C108.982 10.552 108.896 10.2878 108.779 10.0188C108.667 9.74974 108.509 9.50271 108.305 9.27769C108.107 9.04778 107.852 8.86434 107.542 8.72737C107.237 8.58551 106.865 8.51458 106.427 8.51458C106.01 8.51458 105.646 8.59774 105.336 8.76406C105.031 8.93038 104.779 9.16273 104.58 9.46113C104.382 9.75463 104.234 10.0995 104.137 10.4957C104.041 10.8919 103.992 11.3224 103.992 11.7871Z" fill="#001A33"/>
<path d="M113.023 9.20431V15.8301H112.115V7.8909H113L113.023 9.20431ZM115.947 7.83219L115.924 8.63932C115.822 8.62465 115.723 8.61242 115.626 8.60264C115.529 8.59285 115.425 8.58796 115.313 8.58796C114.916 8.58796 114.567 8.65889 114.267 8.80075C113.972 8.93772 113.723 9.13094 113.519 9.38041C113.316 9.625 113.16 9.91361 113.053 10.2462C112.947 10.574 112.885 10.9262 112.87 11.3028L112.534 11.4276C112.534 10.9091 112.59 10.4272 112.702 9.98209C112.814 9.53695 112.985 9.14806 113.214 8.81542C113.448 8.4779 113.74 8.21619 114.092 8.03031C114.448 7.83953 114.865 7.74414 115.344 7.74414C115.461 7.74414 115.575 7.75393 115.687 7.77349C115.804 7.78817 115.891 7.80774 115.947 7.83219Z" fill="#001A33"/>
<path d="M122.099 14.4066V10.3123C122.099 9.93562 122.018 9.61032 121.855 9.33639C121.692 9.06245 121.453 8.85211 121.137 8.70536C120.822 8.55861 120.433 8.48523 119.969 8.48523C119.542 8.48523 119.16 8.55861 118.824 8.70536C118.494 8.84722 118.232 9.04044 118.038 9.28503C117.85 9.52472 117.756 9.79131 117.756 10.0848L116.84 10.0775C116.84 9.77909 116.916 9.49048 117.069 9.21165C117.221 8.93282 117.438 8.68335 117.718 8.46322C117.997 8.2431 118.331 8.06944 118.718 7.94226C119.109 7.81018 119.539 7.74414 120.008 7.74414C120.598 7.74414 121.117 7.83953 121.565 8.03031C122.018 8.22108 122.371 8.50725 122.626 8.8888C122.88 9.27035 123.008 9.74974 123.008 10.3269V14.1645C123.008 14.4384 123.028 14.7221 123.069 15.0156C123.115 15.3091 123.178 15.5513 123.26 15.742V15.8301H122.29C122.229 15.654 122.181 15.4339 122.145 15.1697C122.115 14.9007 122.099 14.6463 122.099 14.4066ZM122.313 11.2074L122.328 11.8825H120.534C120.066 11.8825 119.646 11.9241 119.275 12.0072C118.908 12.0855 118.598 12.2029 118.344 12.3594C118.089 12.5111 117.893 12.6945 117.756 12.9098C117.623 13.125 117.557 13.3696 117.557 13.6435C117.557 13.9272 117.631 14.1865 117.779 14.4213C117.931 14.6561 118.145 14.8444 118.42 14.9863C118.7 15.1232 119.031 15.1917 119.412 15.1917C119.921 15.1917 120.369 15.1012 120.756 14.9202C121.148 14.7392 121.471 14.502 121.725 14.2085C121.98 13.915 122.15 13.5946 122.237 13.2473L122.634 13.7536C122.567 13.9982 122.445 14.2501 122.267 14.5093C122.094 14.7637 121.868 15.0034 121.588 15.2284C121.308 15.4485 120.977 15.6295 120.595 15.7714C120.219 15.9084 119.791 15.9768 119.313 15.9768C118.774 15.9768 118.303 15.879 117.901 15.6833C117.504 15.4877 117.193 15.2211 116.969 14.8835C116.751 14.5411 116.641 14.1547 116.641 13.7242C116.641 13.3329 116.728 12.9831 116.901 12.675C117.074 12.3619 117.323 12.0977 117.649 11.8825C117.98 11.6624 118.377 11.4961 118.84 11.3835C119.308 11.2661 119.832 11.2074 120.412 11.2074H122.313Z" fill="#001A33"/>
<path d="M126.321 9.5345V15.8301H125.405V7.8909H126.282L126.321 9.5345ZM126.153 11.3689L125.71 11.1487C125.74 10.6791 125.832 10.2389 125.985 9.828C126.142 9.4171 126.361 9.05512 126.641 8.74205C126.921 8.42898 127.257 8.1844 127.649 8.0083C128.041 7.83219 128.486 7.74414 128.985 7.74414C129.387 7.74414 129.751 7.79795 130.076 7.90557C130.407 8.0083 130.687 8.17217 130.916 8.39718C131.15 8.61731 131.331 8.90592 131.458 9.26301C131.585 9.62011 131.649 10.0481 131.649 10.5471V15.8301H130.74V10.5764C130.74 10.0481 130.654 9.63478 130.481 9.33639C130.313 9.038 130.076 8.82521 129.771 8.69802C129.471 8.57084 129.122 8.50725 128.725 8.50725C128.257 8.50725 127.86 8.60019 127.534 8.78607C127.214 8.96707 126.952 9.20431 126.748 9.49781C126.55 9.78642 126.402 10.097 126.305 10.4297C126.209 10.7574 126.158 11.0705 126.153 11.3689ZM131.641 10.6791L131.031 10.6938C131.056 10.3074 131.148 9.93806 131.305 9.58586C131.468 9.23366 131.69 8.92059 131.969 8.64666C132.249 8.36783 132.583 8.14771 132.969 7.98628C133.361 7.82486 133.802 7.74414 134.29 7.74414C134.718 7.74414 135.099 7.8004 135.435 7.91291C135.771 8.02052 136.053 8.19418 136.282 8.43387C136.517 8.66867 136.695 8.96951 136.817 9.33639C136.939 9.70326 137 10.1435 137 10.6571V15.8301H136.084V10.6498C136.084 10.0873 135.997 9.6519 135.824 9.34373C135.656 9.03066 135.422 8.81298 135.122 8.69069C134.822 8.56839 134.471 8.50725 134.069 8.50725C133.672 8.51214 133.323 8.58307 133.023 8.72004C132.723 8.85211 132.471 9.02821 132.267 9.24834C132.069 9.46357 131.916 9.69593 131.809 9.9454C131.707 10.1949 131.651 10.4395 131.641 10.6791Z" fill="#001A33"/>
</svg>
